<svg width="171" height="189" viewBox="0 0 171 189" fill="none" xmlns="http://www.w3.org/2000/svg">
<line x1="9" y1="183" x2="154" y2="183" stroke="white" stroke-width="10"/>
<line x1="9" y1="73" x2="154" y2="73" stroke="white" stroke-width="10"/>
<line x1="9" y1="81" x2="154" y2="81" stroke="white" stroke-width="10"/>
<path d="M21.736 1H48.3429C48.3429 1 40.893 42.1491 36.1037 51.2933C31.3145 60.4376 9.2664 63.7048 2.04697 51.2933C-0.167628 40.109 1.15742 34.3068 5.77193 24.3686L21.736 1Z" fill="white"/>
<path d="M122.31 1H148.385L168.606 34.0209C170.255 38.9871 171.01 40.117 169.138 49.2613C167.266 58.4055 135.081 63.4856 134.017 51.2933C132.953 39.101 122.31 1 122.31 1Z" fill="white"/>
<path d="M57.3892 1C54.0137 9.47653 52.0661 9.84246 48.3429 25.8926C46.702 31.4218 45.5509 40.1623 46.2143 52.8174C46.8777 65.4724 79.2782 64.7253 80.8032 52.8174C82.3282 40.9094 80.8032 1 80.8032 1H57.3892Z" fill="white"/>
<path d="M89.3174 1V47.2292C89.3174 47.2292 93.0423 57.3895 100.492 60.4376C107.942 63.4856 122.842 62.4696 126.035 47.2292C129.228 31.9888 114.328 1 114.328 1H89.3174Z" fill="white"/>
<path d="M21.736 1V0.5H21.4721L21.3232 0.717958L21.736 1ZM48.3429 1L48.8349 1.08908L48.9415 0.5H48.3429V1ZM2.04697 51.2933L1.5565 51.3904L1.57274 51.4724L1.61477 51.5447L2.04697 51.2933ZM5.77193 24.3686L5.35907 24.0866L5.3358 24.1206L5.31843 24.158L5.77193 24.3686ZM57.3892 1V0.5H57.0501L56.9247 0.81502L57.3892 1ZM48.3429 25.8926L48.8222 26.0349L48.8265 26.0204L48.8299 26.0056L48.3429 25.8926ZM80.8032 1L81.3028 0.980908L81.2845 0.5H80.8032V1ZM89.3174 1V0.5H88.8174V1H89.3174ZM89.3174 47.2292H88.8174V47.318L88.8479 47.4013L89.3174 47.2292ZM114.328 1L114.778 0.783337L114.642 0.5H114.328V1ZM122.31 1V0.5H121.651L121.828 1.13452L122.31 1ZM148.385 1L148.811 0.738882L148.665 0.5H148.385V1ZM168.606 34.0209L169.08 33.8633L169.062 33.8087L169.032 33.7597L168.606 34.0209ZM21.736 1.5H48.3429V0.5H21.736V1.5ZM48.3429 1C47.8509 0.910925 47.8508 0.911064 47.8508 0.91136C47.8507 0.911667 47.8506 0.912119 47.8505 0.912733C47.8503 0.91396 47.85 0.915812 47.8495 0.918282C47.8486 0.923222 47.8473 0.930639 47.8455 0.940497C47.8419 0.960213 47.8366 0.989695 47.8295 1.02866C47.8152 1.1066 47.7941 1.22248 47.7662 1.37408C47.7106 1.67728 47.6283 2.12332 47.5219 2.69436C47.309 3.83645 46.9995 5.47846 46.6131 7.47753C45.8402 11.4759 44.7601 16.9017 43.5305 22.6123C42.3007 28.3239 40.9224 34.3159 39.5534 39.4484C38.18 44.5978 36.8285 48.8317 35.6608 51.0613L36.5466 51.5253C37.7735 49.1828 39.1493 44.844 40.5197 39.7061C41.8946 34.5513 43.2767 28.5415 44.5081 22.8228C45.7396 17.1032 46.8212 11.6701 47.5949 7.66731C47.9818 5.66578 48.2917 4.02158 48.5049 2.87761C48.6116 2.30562 48.694 1.85867 48.7498 1.55463C48.7777 1.40261 48.799 1.28632 48.8132 1.20798C48.8204 1.16881 48.8258 1.13913 48.8294 1.11922C48.8312 1.10927 48.8326 1.10175 48.8335 1.09672C48.8339 1.0942 48.8343 1.0923 48.8345 1.09103C48.8346 1.09039 48.8347 1.0899 48.8348 1.08958C48.8348 1.08925 48.8349 1.08908 48.3429 1ZM35.6608 51.0613C34.5288 53.2227 32.3514 55.0781 29.5571 56.4474C26.7684 57.8141 23.4035 58.6769 19.9576 58.8776C13.0453 59.2801 5.95696 57.0209 2.47918 51.0419L1.61477 51.5447C5.35642 57.9773 12.9018 60.2902 20.0157 59.8759C23.583 59.6681 27.0793 58.7753 29.9972 57.3454C32.9095 55.9182 35.284 53.9361 36.5466 51.5253L35.6608 51.0613ZM2.53745 51.1962C1.43727 45.64 1.2231 41.4552 1.84268 37.4399C2.4631 33.4192 3.92435 29.535 6.22543 24.5792L5.31843 24.158C3.005 29.1404 1.49646 33.1263 0.854382 37.2874C0.211466 41.4539 0.442074 45.7623 1.5565 51.3904L2.53745 51.1962ZM6.18479 24.6507L22.1489 1.28204L21.3232 0.717958L5.35907 24.0866L6.18479 24.6507ZM56.9247 0.81502C53.585 9.20155 51.5894 9.68464 47.8558 25.7797L48.8299 26.0056C52.5427 10.0003 54.4424 9.75151 57.8537 1.18498L56.9247 0.81502ZM47.8635 25.7504C46.2018 31.3499 45.0496 40.1508 45.715 52.8435L46.7136 52.7912C46.0522 40.1738 47.2023 31.4937 48.8222 26.0349L47.8635 25.7504ZM45.715 52.8435C45.894 56.2587 48.2215 58.7137 51.4668 60.281C54.711 61.8478 58.9531 62.5757 63.1912 62.5284C67.4309 62.4812 71.7197 61.6575 75.0628 60.0724C78.3957 58.4921 80.8867 56.1016 81.2991 52.8809L80.3072 52.7538C79.9572 55.4871 77.8263 57.6554 74.6344 59.1688C71.4528 60.6774 67.3141 61.4824 63.1801 61.5285C59.0446 61.5746 54.9668 60.8608 51.9017 59.3805C48.8377 57.9008 46.8663 55.7035 46.7136 52.7912L45.715 52.8435ZM81.2991 52.8809C82.0672 46.8833 82.0654 33.8883 81.875 22.4349C81.7796 16.699 81.6366 11.3358 81.5174 7.40675C81.4578 5.44214 81.4042 3.83592 81.3654 2.72076C81.3461 2.16317 81.3304 1.72833 81.3196 1.43283C81.3142 1.28508 81.31 1.17217 81.3072 1.09616C81.3058 1.05815 81.3047 1.02937 81.3039 1.01008C81.3036 1.00043 81.3033 0.993153 81.3031 0.988281C81.303 0.985845 81.303 0.98401 81.3029 0.98278C81.3029 0.982165 81.3029 0.981697 81.3029 0.981389C81.3028 0.981073 81.3028 0.980908 80.8032 1C80.3036 1.01909 80.3036 1.01923 80.3036 1.01952C80.3036 1.01982 80.3036 1.02027 80.3036 1.02087C80.3037 1.02206 80.3037 1.02387 80.3038 1.02627C80.304 1.03108 80.3043 1.03829 80.3047 1.04787C80.3054 1.06703 80.3065 1.09567 80.3079 1.13354C80.3107 1.20928 80.3149 1.32192 80.3203 1.46938C80.3311 1.76431 80.3467 2.19853 80.366 2.75548C80.4047 3.86937 80.4583 5.47411 80.5179 7.43707C80.637 11.3631 80.7799 16.7215 80.8751 22.4515C81.066 33.9298 81.0642 46.8435 80.3072 52.7538L81.2991 52.8809ZM80.8032 0.5H57.3892V1.5H80.8032V0.5ZM88.8174 1V47.2292H89.8174V1H88.8174ZM89.3174 47.2292C88.8479 47.4013 88.848 47.4015 88.8481 47.4017C88.8481 47.4018 88.8482 47.402 88.8483 47.4023C88.8485 47.4028 88.8487 47.4034 88.849 47.4042C88.8496 47.4058 88.8504 47.4079 88.8514 47.4107C88.8535 47.4163 88.8565 47.4243 88.8604 47.4347C88.8682 47.4554 88.8796 47.4855 88.8948 47.5246C88.925 47.6027 88.9699 47.7164 89.0294 47.8615C89.1484 48.1516 89.3261 48.5676 89.5625 49.0754C90.0351 50.0904 90.7438 51.4759 91.6895 52.9592C93.5718 55.9113 96.4353 59.3179 100.303 60.9003L100.682 59.9748C97.0993 58.5091 94.3754 55.3115 92.5327 52.4215C91.616 50.9838 90.9278 49.6387 90.4691 48.6533C90.2399 48.161 90.0684 47.7594 89.9546 47.482C89.8977 47.3433 89.8553 47.2357 89.8273 47.1635C89.8133 47.1274 89.803 47.1001 89.7962 47.0822C89.7928 47.0733 89.7904 47.0666 89.7888 47.0624C89.788 47.0603 89.7875 47.0588 89.7871 47.0579C89.787 47.0575 89.7869 47.0572 89.7868 47.0571C89.7868 47.057 89.7868 47.057 89.7868 47.057C89.7868 47.057 89.7868 47.0571 89.3174 47.2292ZM100.303 60.9003C104.132 62.4671 109.846 62.9849 115.026 61.1632C120.238 59.33 124.89 55.1311 126.524 47.3317L125.545 47.1267C123.987 54.5677 119.592 58.4971 114.694 60.2199C109.763 61.9543 104.302 61.4561 100.682 59.9748L100.303 60.9003ZM126.524 47.3317C127.342 43.4261 126.996 38.5554 126.044 33.4841C125.09 28.4032 123.519 23.0757 121.851 18.2366C120.183 13.3958 118.416 9.03422 117.066 5.88319C116.39 4.3074 115.819 3.03367 115.416 2.15335C115.215 1.71317 115.056 1.37131 114.947 1.13918C114.892 1.02311 114.85 0.934474 114.822 0.874693C114.808 0.844802 114.797 0.822125 114.79 0.806839C114.786 0.799197 114.783 0.793402 114.781 0.789477C114.78 0.787515 114.78 0.78602 114.779 0.784996C114.779 0.784484 114.779 0.784069 114.779 0.783813C114.779 0.783516 114.778 0.783337 114.328 1C113.877 1.21666 113.877 1.21672 113.877 1.2169C113.877 1.21711 113.878 1.2174 113.878 1.21784C113.878 1.2187 113.879 1.22003 113.88 1.22183C113.881 1.22542 113.884 1.23089 113.888 1.2382C113.894 1.25282 113.905 1.27482 113.919 1.30403C113.947 1.36245 113.988 1.44968 114.042 1.5643C114.149 1.79355 114.307 2.13235 114.507 2.56929C114.907 3.4432 115.475 4.70953 116.146 6.27707C117.49 9.41271 119.248 13.7508 120.906 18.5623C122.564 23.3754 124.119 28.6527 125.061 33.6686C126.005 38.694 126.324 43.4121 125.545 47.1267L126.524 47.3317ZM114.328 0.5H89.3174V1.5H114.328V0.5ZM122.31 1.5H148.385V0.5H122.31V1.5ZM147.958 1.26112L168.179 34.282L169.032 33.7597L148.811 0.738882L147.958 1.26112ZM168.131 34.1785C168.966 36.6925 169.539 38.1437 169.694 40.1135C169.849 42.085 169.583 44.5948 168.648 49.161L169.628 49.3615C170.565 44.7835 170.858 42.1562 170.691 40.0351C170.524 37.9123 169.895 36.3154 169.08 33.8633L168.131 34.1785ZM168.648 49.161C168.442 50.1694 167.808 51.1621 166.794 52.1085C165.781 53.0535 164.413 53.9282 162.795 54.6997C159.558 56.2426 155.383 57.3416 151.222 57.7813C147.056 58.2215 142.955 57.9955 139.852 56.9324C136.754 55.8706 134.757 54.0217 134.515 51.2498L133.519 51.3368C133.809 54.661 136.234 56.7493 139.528 57.8783C142.818 59.006 147.08 59.2245 151.327 58.7757C155.579 58.3264 159.868 57.2028 163.225 55.6024C164.904 54.8022 166.366 53.875 167.476 52.8396C168.584 51.8055 169.366 50.6392 169.628 49.3615L168.648 49.161ZM134.515 51.2498C133.979 45.105 131.039 32.4885 128.249 21.452C126.851 15.9241 125.487 10.7778 124.472 7.01363C123.965 5.13148 123.545 3.59471 123.251 2.52837C123.105 1.99519 122.99 1.57961 122.911 1.29726C122.872 1.15608 122.842 1.04821 122.822 0.975596C122.812 0.939289 122.804 0.911797 122.799 0.893364C122.797 0.884147 122.795 0.877195 122.793 0.872538C122.793 0.87021 122.792 0.868455 122.792 0.867279C122.792 0.86669 122.792 0.866242 122.792 0.865947C122.791 0.865643 122.791 0.865484 122.31 1C121.828 1.13452 121.828 1.13465 121.828 1.13492C121.828 1.13521 121.829 1.13563 121.829 1.1362C121.829 1.13734 121.83 1.13906 121.83 1.14135C121.831 1.14594 121.833 1.15282 121.836 1.16196C121.841 1.18025 121.849 1.20759 121.859 1.24375C121.879 1.31606 121.909 1.42362 121.948 1.56448C122.026 1.8462 122.141 2.2611 122.287 2.79356C122.58 3.85849 123 5.39362 123.507 7.27394C124.521 11.0347 125.883 16.1757 127.28 21.6971C130.076 32.7591 132.991 45.2893 133.519 51.3368L134.515 51.2498Z" fill="white"/>
<path d="M149 70V186.058" stroke="white" stroke-width="10"/>
<path d="M103 72L103 188.058" stroke="white" stroke-width="5"/>
<path d="M33.875 150V120.909H41.7727V143.636H53.5341V150H33.875ZM63.8999 127.273V120.909H89.1839V127.273H80.4339V150H72.6499V127.273H63.8999Z" fill="white"/>
<line x1="14" y1="70" x2="14" y2="186.058" stroke="white" stroke-width="10"/>
<ellipse cx="117" cy="138.5" rx="3" ry="3.5" fill="#D9D9D9"/>
<path d="M154 69.9005C145.668 69.4972 140.575 67.8455 129.157 56.9867C121.957 67.5396 117.091 70.2849 107.052 69.9005M108.371 69.9005C107.92 69.9107 107.48 69.9107 107.052 69.9005M107.052 69.9005C97.889 69.6832 93.592 64.846 86.0629 56.9867C81.6165 66.8116 77.4729 70.1696 65.2762 69.9005C49.7502 70.7064 44.8545 66.6941 39.9266 55C32.0742 65.802 25.7694 69.6148 9 69.9005" stroke="white" stroke-width="5"/>
<path d="M87 61L98.2583 70H75.7417L87 61Z" fill="white"/>
<path d="M129 60L140.258 69H117.742L129 60Z" fill="white"/>
<path d="M39 59L50.2583 68H27.7417L39 59Z" fill="white"/>
</svg>
